<?xml version="1.0" encoding="UTF-8"?><svg id="Layer_2" xmlns="http://www.w3.org/2000/svg" width="644.9" height="190.16" viewBox="0 0 644.9 190.16"><defs><style>.cls-1{fill:#86c7f9;stroke-width:0px;}</style></defs><g id="Layer_1-2"><path class="cls-1" d="m17.78.46c5.89,0,11.4,1.03,16.52,3.1,5.12,2.06,9.54,4.97,13.25,8.72,3.71,3.75,6.6,8.15,8.66,13.19s3.1,10.4,3.1,16.06-.82,10.86-2.47,15.6c-1.65,4.74-4.07,8.83-7.29,12.27-3.21,3.44-7.21,6.1-11.99,7.97-4.78,1.88-10.15,2.81-16.12,2.81-7.8,0-13.27-1.26-16.4-3.79-3.14-2.52-4.82-6.54-5.05-12.05V8.72c0-2.06.73-3.71,2.18-4.93C4.78,1.57,9.98.46,17.78.46Zm7,22.14h-.8c-.23,0-.73.1-1.49.29-.77.19-1.42.63-1.95,1.32v30.4c.69.61,1.76.92,3.21.92,1.76,0,3.56-.57,5.39-1.72,1.84-1.15,3.42-3.1,4.76-5.85,1.34-2.75,2.01-5.77,2.01-9.06,0-2.98-.56-5.75-1.66-8.32-1.11-2.56-2.47-4.53-4.07-5.91-1.61-1.38-3.4-2.06-5.39-2.06Z"/><path class="cls-1" d="m88.4,19.73v3.67c0,4.44-.23,11.7-.69,21.8-.69,14.07-1.03,23.14-1.03,27.19v4.24c-1.15,1.07-2.68,1.89-4.59,2.47-1.91.57-3.86.86-5.85.86s-3.73-.34-5.45-1.03c-1.72-.69-3-1.66-3.84-2.93-.84-1.26-1.3-2.54-1.38-3.84-.23-3.14-.34-6.35-.34-9.64,0-1.84.19-7.99.57-18.47.3-8.11.46-14.19.46-18.24l-.23-18.01V3.33c2.6-1.53,5.62-2.29,9.06-2.29,2.68,0,5.05.54,7.11,1.61,2.06,1.07,3.56,2.56,4.47,4.47.99,2.14,1.57,6.35,1.72,12.62Z"/><path class="cls-1" d="m147.85,79.62c-2.83,0-5.07-.67-6.71-2.01-1.65-1.34-2.72-2.96-3.21-4.88-.5-1.91-.75-3.71-.75-5.39l.57-17.09c0-7.57-.71-12.83-2.12-15.77-1.42-2.94-3.58-4.42-6.48-4.42-1.99,0-3.79.69-5.39,2.06-1.61,1.38-2.64,3.4-3.1,6.08-.38,2.22-.57,4.9-.57,8.03l.11,14.23c0,4.13-.27,7.3-.8,9.52-.61,2.83-1.49,4.93-2.64,6.31-1.91,2.22-4.7,3.33-8.37,3.33-1.15,0-2.31-.23-3.5-.69-1.19-.46-2.12-1.03-2.81-1.72-.92-.92-1.66-2.14-2.24-3.67-.57-1.53-.98-3.98-1.2-7.34-.61-9.41-1.26-20.29-1.95-32.64-.69-12.35-1.34-21.66-1.95-27.93,1.07-.69,2.31-1.38,3.73-2.06,1.41-.69,3.57-1.03,6.48-1.03s5.51.96,7.8,2.87c2.29,1.91,3.9,4.59,4.82,8.03,2.06-2.75,5.05-4.93,8.95-6.54,3.9-1.61,7.65-2.41,11.24-2.41,5.43,0,9.88,1.19,13.36,3.56,3.48,2.37,6.1,5.72,7.86,10.04,1.76,4.32,2.64,9.66,2.64,16v1.03c-.23,16.52-1.53,28.07-3.9,34.65-2.37,6.58-5.66,9.87-9.87,9.87Z"/><path class="cls-1" d="m219.83,79.62c-2.83,0-5.07-.67-6.71-2.01-1.65-1.34-2.72-2.96-3.21-4.88-.5-1.91-.75-3.71-.75-5.39l.57-17.09c0-7.57-.71-12.83-2.12-15.77-1.42-2.94-3.58-4.42-6.48-4.42-1.99,0-3.79.69-5.39,2.06-1.61,1.38-2.64,3.4-3.1,6.08-.38,2.22-.57,4.9-.57,8.03l.11,14.23c0,4.13-.27,7.3-.8,9.52-.61,2.83-1.49,4.93-2.64,6.31-1.91,2.22-4.7,3.33-8.37,3.33-1.15,0-2.31-.23-3.5-.69-1.19-.46-2.12-1.03-2.81-1.72-.92-.92-1.66-2.14-2.24-3.67-.57-1.53-.98-3.98-1.2-7.34-.61-9.41-1.26-20.29-1.95-32.64-.69-12.35-1.34-21.66-1.95-27.93,1.07-.69,2.31-1.38,3.73-2.06,1.41-.69,3.57-1.03,6.48-1.03s5.51.96,7.8,2.87c2.29,1.91,3.9,4.59,4.82,8.03,2.06-2.75,5.05-4.93,8.95-6.54,3.9-1.61,7.65-2.41,11.24-2.41,5.43,0,9.88,1.19,13.36,3.56,3.48,2.37,6.1,5.72,7.86,10.04,1.76,4.32,2.64,9.66,2.64,16v1.03c-.23,16.52-1.53,28.07-3.9,34.65-2.37,6.58-5.66,9.87-9.87,9.87Z"/><path class="cls-1" d="m263.91,53.57c0,1.45.73,2.79,2.18,4.02.92.77,2.08,1.38,3.5,1.84,1.41.46,2.7.69,3.84.69,4.36,0,9.33-1.03,14.91-3.1.69-.23,1.34-.34,1.95-.34.99,0,1.91.46,2.75,1.38.84.92,1.53,1.91,2.06,2.98.61,1.22.92,2.41.92,3.56,0,1.84-.54,3.63-1.61,5.39-1.61,2.68-4.05,4.84-7.34,6.48-3.29,1.65-6.54,2.7-9.75,3.15-3.21.46-5.93.65-8.15.57-2.37-.08-4.97-.5-7.8-1.26-2.83-.76-5.58-2.1-8.26-4.02-2.68-1.91-5.16-4.45-7.46-7.63-2.29-3.17-4.11-7.06-5.45-11.64-1.34-4.59-2.01-9.33-2.01-14.23,0-4.51.53-8.95,1.61-13.31,1.07-4.36,2.6-8.22,4.59-11.59,1.22-2.06,3.04-4.3,5.45-6.71s5.49-4.42,9.23-6.02c3.75-1.61,7.57-2.41,11.47-2.41,2.6,0,5.35.36,8.26,1.09,2.91.73,5.81,2.08,8.72,4.07,2.91,1.99,5.1,4.57,6.6,7.74,1.49,3.17,2.24,6.41,2.24,9.69,0,2.22-.34,4.67-1.03,7.34-.69,2.68-1.68,4.93-2.98,6.77-1.22,1.68-3.08,3.52-5.56,5.51-2.49,1.99-5.64,3.71-9.46,5.16-3.83,1.45-7.69,2.37-11.59,2.75-.54.08-.98.31-1.32.69-.34.38-.52.84-.52,1.38Zm12.62-29.25c0-2.91-1.3-4.36-3.9-4.36-1.45,0-2.93.38-4.42,1.15-1.49.77-2.7,1.61-3.61,2.52-1.38,1.38-2.41,3.06-3.1,5.05-.69,1.99-1.03,3.9-1.03,5.74l.11,1.72c2.14-.08,4.53-.76,7.17-2.06,2.64-1.3,4.76-2.79,6.37-4.47,1.61-1.68,2.41-3.44,2.41-5.28Z"/><path class="cls-1" d="m323.83,54.38l-.11,4.59c0,.61-.02,2.35-.06,5.22-.04,2.87-.11,5.16-.23,6.88s-.29,3.04-.52,3.96c-.31,1.61-1.11,2.83-2.41,3.67-1.3.84-3.71,1.26-7.23,1.26-2.37,0-4.32-.48-5.85-1.43-1.53-.96-2.72-2.43-3.56-4.42-.61-1.45-.92-4.02-.92-7.69V21.11l.11-6.19c0-2.14.48-4.07,1.43-5.79.96-1.72,2.35-3.23,4.19-4.53,1.84-1.3,4.43-2.39,7.8-3.27,3.36-.88,7.04-1.32,11.01-1.32h1.15c4.13,0,8.01.5,11.64,1.49,3.63,1,6.83,2.51,9.58,4.53,2.75,2.03,4.89,4.59,6.42,7.69,1.53,3.1,2.29,6.64,2.29,10.61,0,4.36-.86,8.6-2.58,12.73s-3.84,7.15-6.37,9.06c2.29,1.84,4.19,4.24,5.68,7.23,1.49,2.98,2.47,5.93,2.92,8.83.46,2.91.69,5.47.69,7.69s-.4,4.19-1.2,5.91c-.8,1.72-2.08,2.96-3.84,3.73-1.76.77-3.63,1.15-5.62,1.15-3.14,0-5.49-.65-7.05-1.95-1.57-1.3-2.35-3.56-2.35-6.77-.23-2.6-.65-5.39-1.26-8.37-.38-1.91-1.28-3.79-2.7-5.62-1.42-1.84-2.98-3.15-4.7-3.96-1.72-.8-3.31-1.2-4.76-1.2-.38,0-.75.15-1.09.46-.34.31-.52.69-.52,1.15Zm.92-35.1v13.31c1.45.77,3.02,1.15,4.7,1.15,2.14,0,3.92-.86,5.33-2.58,1.41-1.72,2.12-3.8,2.12-6.25,0-2.06-.71-3.82-2.12-5.28-1.42-1.45-3.16-2.18-5.22-2.18-2.22,0-3.83.61-4.82,1.84Z"/><path class="cls-1" d="m424.32,65.73c-1.07,2.45-2.81,4.74-5.22,6.88-2.41,2.14-4.95,3.77-7.63,4.88-2.68,1.11-5.24,1.59-7.69,1.43-4.59-.3-8.57-1.85-11.93-4.65-3.37-2.79-5.93-7.02-7.69-12.68-1.76-5.66-2.64-13-2.64-22.03,0-7.72.76-15.01,2.29-21.85,1.53-6.84,3.56-11.26,6.08-13.25,1.22-.92,2.85-1.7,4.88-2.35,2.03-.65,3.88-.98,5.56-.98,2.22,0,3.98.59,5.28,1.78,1.3,1.19,2.14,2.68,2.52,4.47.38,1.8.57,3.46.57,4.99,0,2.75-.54,7.5-1.61,14.23-.08.23-.36,1.74-.86,4.53-.5,2.79-.88,5.28-1.15,7.46-.27,2.18-.4,4.19-.4,6.02,0,1.38.17,2.72.52,4.02.34,1.3.9,1.95,1.66,1.95l.57-.11c.69-.15,1.39-.65,2.12-1.49.73-.84,1.68-2.81,2.87-5.91,1.18-3.1,2.08-5.33,2.7-6.71.61-1.38,1.32-2.64,2.12-3.79.8-1.15,1.74-2.1,2.81-2.87,1.07-.76,2.37-1.15,3.9-1.15l1.84.11c2.45.31,4.51,1.68,6.19,4.13.76,1.3,1.85,4.05,3.27,8.26,1.41,4.21,2.54,7.04,3.38,8.49.84,1.45,1.76,2.18,2.75,2.18.69,0,1.32-.27,1.89-.8.57-.53.96-1.45,1.15-2.75.19-1.3.27-2.73.23-4.3-.04-1.57-.06-2.43-.06-2.58,0-2.37-.44-6.29-1.32-11.76-.88-5.47-1.32-9.35-1.32-11.64,0-4.13,1.07-7.23,3.21-9.29,2.14-2.06,6.12-3.1,11.93-3.1,1.53,0,2.71.25,3.56.75.84.5,1.45,1.36,1.83,2.58,1.15,3.75,2.25,8.6,3.33,14.57,1.07,5.97,1.72,11.89,1.95,17.78v1.61c0,5.2-.56,10-1.66,14.4-1.11,4.4-2.75,8.2-4.93,11.41-2.18,3.21-4.88,5.68-8.09,7.4-3.21,1.72-6.84,2.58-10.9,2.58-1.76,0-3.8-.42-6.14-1.26-2.33-.84-4.59-2.33-6.77-4.47-2.18-2.14-3.84-4.51-4.99-7.11Z"/><path class="cls-1" d="m497.61,19.73v3.67c0,4.44-.23,11.7-.69,21.8-.69,14.07-1.03,23.14-1.03,27.19v4.24c-1.15,1.07-2.68,1.89-4.59,2.47-1.91.57-3.86.86-5.85.86s-3.73-.34-5.45-1.03c-1.72-.69-3-1.66-3.84-2.93-.84-1.26-1.3-2.54-1.38-3.84-.23-3.14-.34-6.35-.34-9.64,0-1.84.19-7.99.57-18.47.3-8.11.46-14.19.46-18.24l-.23-18.01V3.33c2.6-1.53,5.62-2.29,9.06-2.29,2.68,0,5.05.54,7.11,1.61,2.06,1.07,3.56,2.56,4.47,4.47.99,2.14,1.57,6.35,1.72,12.62Z"/><path class="cls-1" d="m524.65,73.08c-.46-1.68-.69-4.51-.69-8.49v-3.33l.11-12.85v-23.4l-6.65-.46c-6.81-.46-11.15-1.66-13.02-3.61-1.88-1.95-2.81-4.3-2.81-7.06s.52-4.95,1.55-6.6c1.03-1.64,2.64-2.93,4.82-3.84,2.18-.92,6.44-1.41,12.79-1.49h34.19c5.12,0,8.95.77,11.47,2.29,2.52,1.53,3.82,3.94,3.9,7.23,0,2.52-.48,4.63-1.43,6.31-.96,1.68-2.58,3.06-4.88,4.13-2.37,1.15-6.42,1.99-12.16,2.52l-4.25.34v12.73l.12,5.85v13.65c0,7.8-.42,13.42-1.26,16.86-1.07,4.21-4.74,6.31-11.01,6.31-2.75,0-5.11-.59-7.06-1.78-1.95-1.18-3.19-2.96-3.73-5.33Z"/><path class="cls-1" d="m622.21,80.19h-.8c-2.07,0-3.77-.23-5.11-.69-1.34-.46-2.39-1.34-3.15-2.64-1.91-2.98-2.87-8.45-2.87-16.41v-6.54l-13.19.92c-.08.84-.17,3.96-.29,9.35-.12,5.39-.56,9.2-1.32,11.41-.69,1.99-1.78,3.33-3.27,4.02-1.49.69-3.23,1.03-5.22,1.03-3.67,0-6.18-.69-7.51-2.06-1.34-1.38-2.24-3.17-2.7-5.39-.84-4.21-1.49-11.28-1.95-21.22-.46-9.94-.69-20.99-.69-33.15v-1.26c0-3.98.25-7.02.75-9.12.5-2.1,1.57-3.73,3.21-4.88,1.64-1.15,4.07-1.72,7.28-1.72,2.83,0,5.2.84,7.11,2.52,2.29,2.22,3.44,6,3.44,11.36l.34,15.14v3.33l13.88.11.12-5.39c0-6.42.04-10.38.11-11.87.08-1.49.19-2.66.34-3.5.46-3.14,1.11-5.52,1.95-7.17.84-1.64,2.06-2.89,3.67-3.73,1.61-.84,3.86-1.26,6.77-1.26,2.37,0,4.21.59,5.51,1.78,1.3,1.19,2.22,3.08,2.75,5.68.76,3.6,1.15,8.91,1.15,15.95v23.17c0,15.99-1.11,25.54-3.33,28.68-.69.99-1.72,1.82-3.1,2.47-1.38.65-2.68,1.01-3.9,1.09Z"/><path class="cls-1" d="m23.31,182.59c-.46-1.68-.69-4.51-.69-8.49v-3.33l.11-12.85v-23.4l-6.65-.46c-6.81-.46-11.15-1.66-13.02-3.61-1.88-1.95-2.81-4.3-2.81-7.06s.52-4.95,1.55-6.6c1.03-1.64,2.64-2.93,4.82-3.84,2.18-.92,6.44-1.41,12.79-1.49h34.19c5.12,0,8.95.77,11.47,2.29,2.52,1.53,3.82,3.94,3.9,7.23,0,2.52-.48,4.63-1.43,6.31-.96,1.68-2.58,3.06-4.88,4.13-2.37,1.15-6.42,1.99-12.16,2.52l-4.25.34v12.73l.11,5.85v13.65c0,7.8-.42,13.42-1.26,16.86-1.07,4.21-4.74,6.31-11.01,6.31-2.75,0-5.1-.59-7.06-1.78-1.95-1.18-3.19-2.96-3.73-5.33Z"/><path class="cls-1" d="m120.87,189.7h-.8c-2.06,0-3.77-.23-5.1-.69-1.34-.46-2.39-1.34-3.15-2.64-1.91-2.98-2.87-8.45-2.87-16.41v-6.54l-13.19.92c-.08.84-.17,3.96-.29,9.35-.11,5.39-.56,9.2-1.32,11.41-.69,1.99-1.78,3.33-3.27,4.02-1.49.69-3.23,1.03-5.22,1.03-3.67,0-6.18-.69-7.51-2.06-1.34-1.38-2.24-3.17-2.7-5.39-.84-4.21-1.49-11.28-1.95-21.22-.46-9.94-.69-20.99-.69-33.15v-1.26c0-3.98.25-7.02.75-9.12.5-2.1,1.57-3.73,3.21-4.88,1.64-1.15,4.07-1.72,7.28-1.72,2.83,0,5.2.84,7.11,2.52,2.29,2.22,3.44,6,3.44,11.36l.34,15.14v3.33l13.88.11.11-5.39c0-6.42.04-10.38.11-11.87.08-1.49.19-2.66.34-3.5.46-3.14,1.11-5.52,1.95-7.17.84-1.64,2.06-2.89,3.67-3.73,1.61-.84,3.86-1.26,6.77-1.26,2.37,0,4.21.59,5.51,1.78,1.3,1.19,2.22,3.08,2.75,5.68.76,3.6,1.15,8.91,1.15,15.95v23.17c0,15.99-1.11,25.54-3.33,28.68-.69.99-1.72,1.82-3.1,2.47-1.38.65-2.68,1.01-3.9,1.09Z"/><path class="cls-1" d="m162.54,163.09c0,1.45.73,2.79,2.18,4.02.92.77,2.08,1.38,3.5,1.84,1.41.46,2.7.69,3.84.69,4.36,0,9.33-1.03,14.91-3.1.69-.23,1.34-.34,1.95-.34.99,0,1.91.46,2.75,1.38.84.92,1.53,1.91,2.06,2.98.61,1.22.92,2.41.92,3.56,0,1.84-.54,3.63-1.61,5.39-1.61,2.68-4.05,4.84-7.34,6.48-3.29,1.65-6.54,2.7-9.75,3.15-3.21.46-5.93.65-8.15.57-2.37-.08-4.97-.5-7.8-1.26-2.83-.76-5.58-2.1-8.26-4.02-2.68-1.91-5.16-4.45-7.46-7.63-2.29-3.17-4.11-7.06-5.45-11.64-1.34-4.59-2.01-9.33-2.01-14.23,0-4.51.53-8.95,1.61-13.31,1.07-4.36,2.6-8.22,4.59-11.59,1.22-2.06,3.04-4.3,5.45-6.71s5.49-4.42,9.23-6.02c3.75-1.61,7.57-2.41,11.47-2.41,2.6,0,5.35.36,8.26,1.09,2.91.73,5.81,2.08,8.72,4.07,2.91,1.99,5.1,4.57,6.6,7.74,1.49,3.17,2.24,6.41,2.24,9.69,0,2.22-.34,4.67-1.03,7.34-.69,2.68-1.68,4.93-2.98,6.77-1.22,1.68-3.08,3.52-5.56,5.51-2.49,1.99-5.64,3.71-9.46,5.16-3.83,1.45-7.69,2.37-11.59,2.75-.54.08-.98.31-1.32.69-.34.38-.52.84-.52,1.38Zm12.62-29.25c0-2.91-1.3-4.36-3.9-4.36-1.45,0-2.93.38-4.42,1.15-1.49.77-2.7,1.61-3.61,2.52-1.38,1.38-2.41,3.06-3.1,5.05-.69,1.99-1.03,3.9-1.03,5.74l.11,1.72c2.14-.08,4.53-.76,7.17-2.06,2.64-1.3,4.76-2.79,6.37-4.47,1.61-1.68,2.41-3.44,2.41-5.28Z"/><path class="cls-1" d="m266.13,189.24c-6.04,0-9.48-2.18-10.32-6.54-.69-3.44-1.03-8.56-1.03-15.37,0-2.98-.29-5.26-.86-6.83-.57-1.57-2.47-2.35-5.68-2.35s-5.37.56-6.25,1.66c-.88,1.11-1.32,2.62-1.32,4.53,0,1.61.09,3.65.29,6.14.19,2.49.29,4.23.29,5.22,0,3.6-.69,6.64-2.07,9.12-1.38,2.49-3.44,3.73-6.19,3.73-2.06,0-4.02-.65-5.85-1.95-2.91-2.07-5.16-6.81-6.77-14.23-1.45-6.81-2.18-14.84-2.18-24.09,0-7.04.34-13.8,1.03-20.31.53-5.51,1.18-8.99,1.95-10.44.38-1.15,1.05-2.25,2.01-3.33.96-1.07,2.2-1.87,3.73-2.41,1.53-.53,2.94-.8,4.24-.8,3.06,0,5.35.86,6.88,2.58,1.53,1.72,2.29,4.07,2.29,7.06v10.44c0,4.13.55,6.81,1.66,8.03,1.11,1.22,2.58,1.84,4.42,1.84,2.45,0,4.21-.29,5.28-.86,1.07-.57,1.87-1.57,2.41-2.98.53-1.41.8-4.8.8-10.15v-2.41c0-1.99.36-4.11,1.09-6.37.73-2.25,2.06-4.13,4.02-5.62,1.95-1.49,4.26-2.24,6.94-2.24,3.29,0,5.81.88,7.57,2.64,1.76,1.76,2.83,4.82,3.21,9.18.23,2.52.34,6.04.34,10.55,0,7.65-.29,16.12-.86,25.41-.57,9.29-1.32,16.5-2.24,21.62-1.07,6.35-4.02,9.52-8.83,9.52Z"/><path class="cls-1" d="m309.68,163.09c0,1.45.73,2.79,2.18,4.02.92.77,2.08,1.38,3.5,1.84,1.41.46,2.7.69,3.84.69,4.36,0,9.33-1.03,14.91-3.1.69-.23,1.34-.34,1.95-.34.99,0,1.91.46,2.75,1.38.84.92,1.53,1.91,2.07,2.98.61,1.22.92,2.41.92,3.56,0,1.84-.54,3.63-1.61,5.39-1.61,2.68-4.05,4.84-7.34,6.48-3.29,1.65-6.54,2.7-9.75,3.15-3.21.46-5.93.65-8.15.57-2.37-.08-4.97-.5-7.8-1.26-2.83-.76-5.58-2.1-8.26-4.02-2.68-1.91-5.16-4.45-7.46-7.63-2.29-3.17-4.11-7.06-5.45-11.64-1.34-4.59-2.01-9.33-2.01-14.23,0-4.51.53-8.95,1.61-13.31,1.07-4.36,2.6-8.22,4.59-11.59,1.22-2.06,3.04-4.3,5.45-6.71s5.49-4.42,9.23-6.02c3.75-1.61,7.57-2.41,11.47-2.41,2.6,0,5.35.36,8.26,1.09,2.91.73,5.81,2.08,8.72,4.07,2.91,1.99,5.11,4.57,6.6,7.74,1.49,3.17,2.24,6.41,2.24,9.69,0,2.22-.34,4.67-1.03,7.34-.69,2.68-1.68,4.93-2.98,6.77-1.22,1.68-3.08,3.52-5.56,5.51-2.49,1.99-5.64,3.71-9.46,5.16-3.83,1.45-7.69,2.37-11.59,2.75-.54.08-.98.31-1.32.69-.34.38-.52.84-.52,1.38Zm12.62-29.25c0-2.91-1.3-4.36-3.9-4.36-1.45,0-2.93.38-4.42,1.15-1.49.77-2.7,1.61-3.61,2.52-1.38,1.38-2.41,3.06-3.1,5.05-.69,1.99-1.03,3.9-1.03,5.74l.11,1.72c2.14-.08,4.53-.76,7.17-2.06,2.64-1.3,4.76-2.79,6.37-4.47,1.61-1.68,2.41-3.44,2.41-5.28Z"/><path class="cls-1" d="m371.01,163.09c0,1.45.73,2.79,2.18,4.02.92.77,2.08,1.38,3.5,1.84,1.41.46,2.7.69,3.84.69,4.36,0,9.33-1.03,14.91-3.1.69-.23,1.34-.34,1.95-.34.99,0,1.91.46,2.75,1.38.84.92,1.53,1.91,2.07,2.98.61,1.22.92,2.41.92,3.56,0,1.84-.54,3.63-1.61,5.39-1.61,2.68-4.05,4.84-7.34,6.48-3.29,1.65-6.54,2.7-9.75,3.15-3.21.46-5.93.65-8.14.57-2.37-.08-4.97-.5-7.8-1.26-2.83-.76-5.58-2.1-8.26-4.02-2.68-1.91-5.16-4.45-7.46-7.63-2.29-3.17-4.11-7.06-5.45-11.64-1.34-4.59-2.01-9.33-2.01-14.23,0-4.51.53-8.95,1.61-13.31,1.07-4.36,2.6-8.22,4.59-11.59,1.22-2.06,3.04-4.3,5.45-6.71s5.49-4.42,9.24-6.02c3.75-1.61,7.57-2.41,11.47-2.41,2.6,0,5.35.36,8.26,1.09,2.91.73,5.81,2.08,8.72,4.07,2.91,1.99,5.1,4.57,6.6,7.74,1.49,3.17,2.24,6.41,2.24,9.69,0,2.22-.34,4.67-1.03,7.34-.69,2.68-1.68,4.93-2.98,6.77-1.22,1.68-3.08,3.52-5.56,5.51-2.49,1.99-5.64,3.71-9.46,5.16-3.83,1.45-7.69,2.37-11.59,2.75-.54.08-.98.31-1.32.69-.34.38-.52.84-.52,1.38Zm12.62-29.25c0-2.91-1.3-4.36-3.9-4.36-1.45,0-2.93.38-4.42,1.15-1.49.77-2.7,1.61-3.61,2.52-1.38,1.38-2.41,3.06-3.1,5.05-.69,1.99-1.03,3.9-1.03,5.74l.11,1.72c2.14-.08,4.53-.76,7.17-2.06,2.64-1.3,4.76-2.79,6.37-4.47,1.61-1.68,2.41-3.44,2.41-5.28Z"/><path class="cls-1" d="m414.47,111.12c1.15-.23,2.29-.34,3.44-.34,4.44,0,8.05,1.4,10.84,4.19,2.79,2.79,4.22,6.52,4.3,11.19v2.98l.23,32.81c0,3.9,2.14,5.85,6.42,5.85,1.83-.08,3.92-.44,6.25-1.09,2.33-.65,3.88-1.05,4.65-1.2,1.3-.23,2.64-.34,4.01-.34,1.68,0,3.27.4,4.76,1.2,1.49.8,2.58,1.86,3.27,3.15.53,1,.8,2.26.8,3.79,0,5.51-2.24,9.6-6.71,12.27-4.47,2.68-11.38,4.02-20.71,4.02-5.58,0-10.38-.99-14.4-2.98-4.01-1.99-7.13-4.88-9.35-8.66-2.22-3.79-3.33-8.51-3.33-14.17l.11-3.33.23-12.85-.57-28.68c0-1.99.38-3.65,1.15-4.99.76-1.34,2.29-2.27,4.59-2.81Z"/><path class="cls-1" d="m490.58,163.09c0,1.45.73,2.79,2.18,4.02.92.77,2.08,1.38,3.5,1.84,1.41.46,2.7.69,3.84.69,4.36,0,9.33-1.03,14.91-3.1.69-.23,1.34-.34,1.95-.34.99,0,1.91.46,2.75,1.38.84.92,1.53,1.91,2.07,2.98.61,1.22.92,2.41.92,3.56,0,1.84-.54,3.63-1.61,5.39-1.61,2.68-4.05,4.84-7.34,6.48-3.29,1.65-6.54,2.7-9.75,3.15-3.21.46-5.93.65-8.14.57-2.37-.08-4.97-.5-7.8-1.26-2.83-.76-5.58-2.1-8.26-4.02-2.68-1.91-5.16-4.45-7.46-7.63-2.29-3.17-4.11-7.06-5.45-11.64-1.34-4.59-2.01-9.33-2.01-14.23,0-4.51.53-8.95,1.61-13.31,1.07-4.36,2.6-8.22,4.59-11.59,1.22-2.06,3.04-4.3,5.45-6.71s5.49-4.42,9.24-6.02c3.75-1.61,7.57-2.41,11.47-2.41,2.6,0,5.35.36,8.26,1.09,2.91.73,5.81,2.08,8.72,4.07,2.91,1.99,5.1,4.57,6.6,7.74,1.49,3.17,2.24,6.41,2.24,9.69,0,2.22-.34,4.67-1.03,7.34-.69,2.68-1.68,4.93-2.98,6.77-1.22,1.68-3.08,3.52-5.56,5.51-2.49,1.99-5.64,3.71-9.46,5.16-3.83,1.45-7.69,2.37-11.59,2.75-.54.08-.98.31-1.32.69-.34.38-.52.84-.52,1.38Zm12.62-29.25c0-2.91-1.3-4.36-3.9-4.36-1.45,0-2.93.38-4.42,1.15-1.49.77-2.7,1.61-3.61,2.52-1.38,1.38-2.41,3.06-3.1,5.05-.69,1.99-1.03,3.9-1.03,5.74l.11,1.72c2.14-.08,4.53-.76,7.17-2.06,2.64-1.3,4.76-2.79,6.37-4.47,1.61-1.68,2.41-3.44,2.41-5.28Z"/><path class="cls-1" d="m550.5,163.89l-.11,4.59c0,.61-.02,2.35-.06,5.22-.04,2.87-.11,5.16-.23,6.88-.11,1.72-.29,3.04-.52,3.96-.31,1.61-1.11,2.83-2.41,3.67-1.3.84-3.71,1.26-7.23,1.26-2.37,0-4.32-.48-5.85-1.43-1.53-.96-2.72-2.43-3.56-4.42-.61-1.45-.92-4.02-.92-7.69v-45.31l.12-6.19c0-2.14.48-4.07,1.43-5.79.96-1.72,2.35-3.23,4.19-4.53,1.84-1.3,4.43-2.39,7.8-3.27,3.36-.88,7.04-1.32,11.01-1.32h1.15c4.13,0,8.01.5,11.64,1.49,3.63,1,6.83,2.51,9.58,4.53,2.75,2.03,4.89,4.59,6.42,7.69,1.53,3.1,2.29,6.64,2.29,10.61,0,4.36-.86,8.6-2.58,12.73s-3.84,7.15-6.37,9.06c2.29,1.84,4.19,4.24,5.68,7.23,1.49,2.98,2.47,5.93,2.93,8.83.46,2.91.69,5.47.69,7.69s-.4,4.19-1.2,5.91c-.8,1.72-2.08,2.96-3.84,3.73-1.76.77-3.63,1.15-5.62,1.15-3.14,0-5.49-.65-7.05-1.95-1.57-1.3-2.35-3.56-2.35-6.77-.23-2.6-.65-5.39-1.26-8.37-.38-1.91-1.28-3.79-2.7-5.62-1.42-1.84-2.98-3.15-4.7-3.96-1.72-.8-3.31-1.2-4.76-1.2-.38,0-.75.15-1.09.46-.34.31-.52.69-.52,1.15Zm.92-35.1v13.31c1.45.77,3.02,1.15,4.7,1.15,2.14,0,3.92-.86,5.33-2.58,1.41-1.72,2.12-3.8,2.12-6.25,0-2.06-.71-3.82-2.12-5.28-1.42-1.45-3.15-2.18-5.22-2.18-2.22,0-3.83.61-4.82,1.84Z"/><path class="cls-1" d="m614.96,135.32c.15.31.55.75,1.21,1.32.65.57,1.62,1.3,2.92,2.18,1.3.88,2.62,1.74,3.96,2.58,1.34.84,2.12,1.34,2.35,1.49l1.95,1.26c4.36,2.75,7.69,5.12,9.98,7.11,2.29,1.99,4.13,4.21,5.51,6.65,1.38,2.45,2.07,5.28,2.07,8.49,0,15.83-11.24,23.75-33.73,23.75-3.29,0-6.87-.5-10.73-1.49-3.86-.99-6.67-2.35-8.43-4.07-1.76-1.72-2.64-3.54-2.64-5.45,0-2.29.48-4.17,1.43-5.62.96-1.45,2.43-2.6,4.42-3.44,1.99-.84,5.68-1.51,11.07-2.01,5.39-.5,9.2-1.01,11.42-1.55,1.15-.23,1.72-.76,1.72-1.61,0-.15-.08-.36-.23-.63-.15-.27-.34-.48-.57-.63l-7.11-3.9c-7.42-4.36-12.62-8.56-15.6-12.62-2.98-4.05-4.47-8.6-4.47-13.65,0-7.34,3.12-13.17,9.35-17.5,6.23-4.32,14.89-6.48,25.98-6.48,3.21,0,6.25.4,9.12,1.2,2.87.8,4.97,2.16,6.31,4.07,1.34,1.91,2.01,3.94,2.01,6.08s-.82,4.03-2.47,5.68c-1.65,1.65-4.01,2.89-7.11,3.73-3.1.84-6.94,1.53-11.53,2.06-4.59.54-7.15.92-7.69,1.15-.15.08-.31.23-.46.46-.15.23-.23.42-.23.57l.23.8Z"/></g></svg>