<?xml version="1.0" encoding="UTF-8"?><svg id="Layer_2" xmlns="http://www.w3.org/2000/svg" width="768.9" height="289.35" xmlns:xlink="http://www.w3.org/1999/xlink" viewBox="0 0 768.9 289.35"><defs><style>.cls-1{fill:url(#linear-gradient);}.cls-1,.cls-2,.cls-3{stroke-width:0px;}.cls-2{fill:#719fc2;}.cls-3{fill:#fff;}</style><linearGradient id="linear-gradient" x1="382.08" y1="296.6" x2="379.37" y2="20.78" gradientUnits="userSpaceOnUse"><stop offset=".11" stop-color="#aee0fe"/><stop offset="1" stop-color="#009fe6"/></linearGradient></defs><g id="Layer_1-2"><rect class="cls-2" x="7.2" y="7.2" width="761.7" height="282.15" rx="51.19" ry="51.19"/><rect class="cls-3" width="761.7" height="282.15" rx="51.19" ry="51.19"/><path class="cls-1" d="m67.45,43.74c54.39,0,58.61,82.01,3.78,82.01-13.32,0-21.51-3.03-22.07-16.29,0-61.7-.88-59.66,2.24-62.31,2.68-2.27,8.02-3.42,16.05-3.42Zm7.2,22.77c-5.95,0-4.37-.09-4.37,32.92,3.81,3.39,15.81-1.32,15.81-16.17,0-7.28-4.16-16.76-11.45-16.76Zm59.07-20.53c-4.65-2.41-11.66-2.22-16.64.71.59,58.01-2.82,69.11.94,74.76,3.73,5.6,15.62,5.02,20.3.65,0-51.78,6.47-70.37-4.6-76.11Zm81.68,33.4c0-41.19-36.26-34.38-45.31-22.3-2.89-10.84-13.2-14.64-23.48-8.02,1.91,19.62,3.22,64.45,5.25,69.86,3.1,8.28,13.46,7.49,17.41,2.83,9.14-10.79-4.43-47.56,12.74-47.56,8.51,0,8.85,12.19,8.85,20.77-.48,14.43-3.97,30.21,10.38,30.21,13.48,0,13.97-32.17,14.16-45.79Zm74.05,0c0-41.19-36.26-34.38-45.31-22.3-2.89-10.84-13.2-14.64-23.48-8.02,1.91,19.62,3.22,64.45,5.25,69.86,3.1,8.28,13.46,7.49,17.41,2.83,9.14-10.79-4.43-47.56,12.74-47.56,8.51,0,8.85,12.19,8.85,20.77-.48,14.43-3.97,30.21,10.38,30.21,13.48,0,13.97-32.17,14.16-45.79Zm31.18,19c0,2.98,2.97,5.09,5.84,6.02,5.54,1.8,13.57-.46,19.29-2.48,4.88-1.71,7.91,4.7,7.91,7.79,0,11.19-16.19,16.45-27.61,16.05-33.97-1.08-41.18-51.1-19.88-72.4,9.74-9.74,26.36-11.85,38.77-3.36,10.8,7.39,11.36,23.41,4.96,32.45-10.47,14.4-29.27,12.01-29.27,15.93Zm12.98-30.09c0-9.16-17.46-3.82-16.4,12.15,5.65-.2,16.4-5.74,16.4-12.15Zm48.65,30.92c-.37,18.94.06,22.76-3.42,25.02-2.21,1.43-9.8,2.11-13.45-.18-4.41-2.75-4.54-7.66-4.54-12.45,0-56.6-4.02-62.29,13.87-66.97,9.77-2.55,24.96-2.06,34.34,4.84,14.88,10.95,8.66,34.51-.24,41.24,9.16,7.32,11.26,24.2,8.32,30.5-3.02,6.48-19.41,8.57-19.41-3.95-.46-5.22-1-10.41-4.07-14.4-3.71-4.8-11.39-7.15-11.39-3.66Zm.94-36.11v13.69c13.08,6.89,17.68-15.58,4.96-15.58-2.28,0-3.93.63-4.96,1.89Zm147.15,24.19c0-7.21-3.14-35.11-7.32-37.59-2.53-1.49-12.4-.99-15.93,2.42-8.75,8.43,4.26,37.77-1.95,43.54-5.42,5.06-7.95-12.39-11.62-18.64-3.49-5.07-10.73-6.57-15.16-.24-4.48,6.4-5.81,17.46-10.09,18.41-7.84,1.57,3.23-32.42.71-44.31-1.9-8.88-13.23-7.27-18.76-3.01-9.61,7.4-13.97,58.56,2.01,71.81,12.15,10.08,28.51,2.37,33.4-8.79,9.56,21.68,44.72,18.74,44.72-23.6Zm24.3-41.3c-4.63-2.4-11.65-2.23-16.64.71.59,57.9-2.82,69.13.94,74.76,3.73,5.6,15.62,5.02,20.3.65,0-51.7,6.47-70.37-4.6-76.11Zm45.28,79.77c15.46,0,12.57-8.52,12.57-57,7.55-.62,18.33-1.04,21.83-7.2,2.12-3.74,2.52-10.86-2.54-13.92-5.16-3.12-10.31-2.36-46.97-2.36-6.76.08-14.7.06-18.11,5.49-2.19,3.49-2.48,10.11,1.3,14.04,3.5,3.65,14.57,3.8,20.18,4.19,0,45.8-3.71,56.76,11.74,56.76Zm99.88-57c0-5.92.1-18.48-4.01-22.24-3-2.73-9.81-2.01-12.63-.53-7.99,4.19-6.28,22.96-6.37,32.51h-14.28c-.36-19.67,1.89-33.34-11.21-33.34-11.21,0-11.56,6.47-11.56,17.46,0,60.05,1.75,63.61,13.22,63.61,12.62,0,9.05-11.83,10.38-26.55l13.57-.94c0,7.63-.85,23.9,6.19,26.32,19.82,6.8,16.7-19.26,16.7-56.29ZM84.23,238.41c15.46,0,12.57-8.52,12.57-57,7.54-.62,18.33-1.04,21.83-7.2,2-3.52,2.68-10.76-2.54-13.92-5.16-3.13-10.31-2.36-46.97-2.36-6.83.08-14.71.08-18.11,5.49-2.19,3.49-2.48,10.11,1.3,14.04,3.5,3.65,14.57,3.8,20.18,4.19,0,46.4-3.55,56.76,11.74,56.76Zm99.88-57c0-5.9.1-18.49-4.01-22.24-3-2.73-9.81-2.01-12.63-.53-8.01,4.2-6.28,23.23-6.37,32.51h-14.28c-.36-19.53,1.93-33.34-11.21-33.34-11.22,0-11.56,6.48-11.56,17.46,0,59.97,1.71,63.61,13.22,63.61,12.66,0,9.07-12.25,10.38-26.55l13.57-.94c0,7.63-.85,23.9,6.2,26.32,19.82,6.8,16.7-19.48,16.7-56.29Zm32.25,29.62c0,2.98,2.97,5.09,5.84,6.02,5.54,1.8,13.57-.46,19.29-2.48,4.88-1.71,7.91,4.7,7.91,7.79,0,11.19-16.19,16.45-27.61,16.05-33.97-1.08-41.18-51.1-19.88-72.4,9.74-9.74,26.36-11.85,38.77-3.36,10.8,7.39,11.36,23.41,4.96,32.45-10.47,14.4-29.27,12.01-29.27,15.93Zm12.98-30.09c0-9.16-17.46-3.82-16.4,12.15,5.65-.2,16.4-5.74,16.4-12.15Zm104.97,24.96c.61-9.88,1.35-28.02.53-37-1.54-17.45-19.14-14.07-22.36-4.07-2.71,8.41,1.12,19.57-4.42,22.54-1.88,1.01-7.5,1.73-9.97-1-2.17-2.39-1.71-9.03-1.71-19,0-12.33-13.34-11.43-17.64-6.61-6.51,7.29-6.01,45.25-2.89,59.83,5.03,23.25,21.48,20.57,21.48,3.42,0-11.99-3.65-18.06,7.2-18.06,15.61,0-3.67,31.98,18.41,31.98,9.2,0,10.05-10.39,11.39-32.04Zm33.41,5.13c0,2.98,2.97,5.09,5.84,6.02,5.54,1.8,13.56-.46,19.29-2.48,4.88-1.72,7.91,4.71,7.91,7.79,0,11.23-16.26,16.44-27.61,16.05-33.97-1.08-41.18-51.1-19.88-72.4,9.74-9.74,26.36-11.85,38.77-3.36,10.74,7.36,11.4,23.35,4.96,32.45-10.52,14.46-29.27,11.94-29.27,15.93Zm12.98-30.09c0-9.16-17.46-3.82-16.4,12.15,5.65-.2,16.4-5.74,16.4-12.15Zm50.11,30.09c0,2.98,2.97,5.09,5.84,6.02,5.54,1.8,13.56-.46,19.29-2.48,4.87-1.71,7.91,4.7,7.91,7.79,0,11.23-16.26,16.44-27.61,16.05-33.84-1.07-41.25-51.03-19.88-72.4,9.74-9.74,26.35-11.85,38.77-3.36,10.66,7.3,11.46,23.27,4.96,32.45-10.51,14.46-29.27,11.95-29.27,15.93Zm12.98-30.09c0-9.06-17.48-4-16.4,12.15,5.64-.2,16.4-5.74,16.4-12.15Zm26.06,30.8c0,33.43,39.13,28.42,49.15,22.42,9.42-5.63,9.88-21.01-2.18-21.01-7.03,0-22.07,7.66-22.07-3.3,0-38.29,1.48-42.3-4.54-48.32-4.08-4.07-9.99-4.97-14.69-3.95-9.11,1.98-4.64,5.9-5.66,54.17Zm83.96-.71c0,2.98,2.97,5.09,5.84,6.02,5.54,1.8,13.56-.46,19.29-2.48,4.87-1.71,7.91,4.7,7.91,7.79,0,11.23-16.26,16.44-27.61,16.05-33.94-1.08-41.2-51.08-19.88-72.4,9.77-9.77,26.37-11.83,38.77-3.36,10.66,7.3,11.46,23.27,4.96,32.45-10.51,14.46-29.27,11.95-29.27,15.93Zm12.98-30.09c0-9.06-17.48-4-16.4,12.15,5.64-.2,16.4-5.74,16.4-12.15Zm48.65,30.92c-.36,18.91.07,22.76-3.42,25.02-2.21,1.43-9.8,2.11-13.45-.18-4.41-2.75-4.54-7.66-4.54-12.45,0-56.6-4.02-62.29,13.87-66.97,9.77-2.55,24.96-2.06,34.34,4.84,14.93,10.99,8.62,34.54-.24,41.24,9.17,7.34,11.25,24.22,8.32,30.5-3.03,6.5-19.41,8.56-19.41-3.95-.47-5.27-1.01-10.42-4.07-14.4-3.71-4.8-11.39-7.15-11.39-3.66Zm.94-36.11v13.69c13.13,6.92,17.61-15.58,4.96-15.58-2.28,0-3.93.63-4.96,1.89Zm85.6,1.53c14.4-3.91,11.53-17.25,1.3-20.12-9.8-2.74-26.66-1.12-36.11,5.43-11.77,8.16-11.97,22.59-5.01,32.04,5.56,7.56,16.05,12.98,23.36,16.99.51.34.83,1.01.83,1.3,0,4.6-24.07.68-29.44,8.85-6.85,10.41,7.33,17.11,20.95,17.11,38.19,0,37.29-24.76,32.57-33.16-6.07-10.79-26.69-19.25-28.68-23.25-1.11-3.87,6.71-1.51,20.24-5.19Z"/></g></svg>