<?xml version="1.0" encoding="UTF-8"?>
<svg id="Layer_2" xmlns="http://www.w3.org/2000/svg" width="768.9" height="289.35" viewBox="0 0 768.9 289.35">
	<defs>
		<style>
			.cls-1 {
				fill: #719fc2;
			}

			.cls-1,
			.cls-2,
			.cls-3 {
				stroke-width: 0px;
			}

			.cls-2 {
				fill: #86c7f9;
			}

			.cls-3 {
				fill: #fff;
			}
		</style>
	</defs>
	<g id="Layer_1-2">
		<rect class="cls-1" x="7.2" y="7.2" width="761.7" height="282.15" rx="51.19" ry="51.19" />
		<rect class="cls-3" width="761.7" height="282.15" rx="51.19" ry="51.19" />
		<path class="cls-2"
			d="m67.45,43.74c54.39,0,58.61,82.01,3.78,82.01-13.32,0-21.51-3.03-22.07-16.29,0-61.7-.88-59.66,2.24-62.31,2.68-2.27,8.02-3.42,16.05-3.42Zm7.2,22.77c-5.95,0-4.37-.09-4.37,32.92,3.81,3.39,15.81-1.32,15.81-16.17,0-7.28-4.16-16.76-11.45-16.76Z" />
		<path class="cls-2"
			d="m138.32,122.1c-4.67,4.37-16.57,4.95-20.3-.65-3.77-5.64-.35-16.75-.94-74.76,4.98-2.93,11.99-3.12,16.64-.71,11.07,5.75,4.6,24.33,4.6,76.11Z" />
		<path class="cls-2"
			d="m201.24,125.17c-14.35,0-10.87-15.77-10.38-30.21,0-8.58-.34-20.77-8.85-20.77-17.18,0-3.6,36.77-12.74,47.56-3.95,4.66-14.3,5.44-17.41-2.83-2.03-5.41-3.34-50.24-5.25-69.86,10.28-6.61,20.59-2.82,23.48,8.02,9.06-12.08,45.31-18.89,45.31,22.3-.19,13.62-.68,45.79-14.16,45.79Z" />
		<path class="cls-2"
			d="m275.29,125.17c-14.35,0-10.87-15.77-10.38-30.21,0-8.58-.34-20.77-8.85-20.77-17.18,0-3.6,36.77-12.74,47.56-3.95,4.66-14.3,5.44-17.41-2.83-2.03-5.41-3.34-50.24-5.25-69.86,10.28-6.61,20.59-2.82,23.48,8.02,9.06-12.08,45.31-18.89,45.31,22.3-.19,13.62-.68,45.79-14.16,45.79Z" />
		<path class="cls-2"
			d="m320.63,98.38c0,2.98,2.97,5.09,5.84,6.02,5.54,1.8,13.57-.46,19.29-2.48,4.88-1.71,7.91,4.7,7.91,7.79,0,11.19-16.19,16.45-27.61,16.05-33.97-1.08-41.18-51.1-19.88-72.4,9.74-9.74,26.36-11.85,38.77-3.36,10.8,7.39,11.36,23.41,4.96,32.45-10.47,14.4-29.27,12.01-29.27,15.93Zm12.98-30.09c0-9.16-17.46-3.82-16.4,12.15,5.65-.2,16.4-5.74,16.4-12.15Z" />
		<path class="cls-2"
			d="m382.26,99.2c-.37,18.94.06,22.76-3.42,25.02-2.21,1.43-9.8,2.11-13.45-.18-4.41-2.75-4.54-7.66-4.54-12.45,0-56.6-4.02-62.29,13.87-66.97,9.77-2.55,24.96-2.06,34.34,4.84,14.88,10.95,8.66,34.51-.24,41.24,9.16,7.32,11.26,24.2,8.32,30.5-3.02,6.48-19.41,8.57-19.41-3.95-.46-5.22-1-10.41-4.07-14.4-3.71-4.8-11.39-7.15-11.39-3.66Zm.94-36.11v13.69c13.08,6.89,17.68-15.58,4.96-15.58-2.28,0-3.93.63-4.96,1.89Z" />
		<path class="cls-2"
			d="m485.64,110.89c-4.89,11.16-21.25,18.87-33.4,8.79-15.98-13.25-11.62-64.41-2.01-71.81,5.54-4.26,16.87-5.87,18.76,3.01,2.53,11.89-8.55,45.88-.71,44.31,4.28-.95,5.61-12,10.09-18.41,4.43-6.34,11.67-4.84,15.16.24,3.67,6.25,6.21,23.71,11.62,18.64,6.21-5.77-6.8-35.11,1.95-43.54,3.53-3.4,13.4-3.91,15.93-2.42,4.17,2.48,7.32,30.37,7.32,37.59,0,42.35-35.17,45.28-44.72,23.6Z" />
		<path class="cls-2"
			d="m559.26,122.1c-4.68,4.37-16.57,4.95-20.3-.65-3.76-5.63-.35-16.85-.94-74.76,4.99-2.94,12.01-3.11,16.64-.71,11.07,5.75,4.6,24.42,4.6,76.11Z" />
		<path class="cls-2"
			d="m588.19,68.99c-5.61-.39-16.68-.54-20.18-4.19-3.78-3.93-3.49-10.56-1.3-14.04,3.41-5.43,11.35-5.41,18.11-5.49,36.66,0,41.81-.76,46.97,2.36,5.06,3.07,4.66,10.19,2.54,13.92-3.51,6.16-14.28,6.58-21.83,7.2,0,48.48,2.89,57-12.57,57s-11.74-10.97-11.74-56.76Z" />
		<path class="cls-2"
			d="m683.12,125.05c-7.05-2.41-6.19-18.69-6.19-26.32l-13.57.94c-1.33,14.72,2.24,26.55-10.38,26.55-11.47,0-13.22-3.55-13.22-63.61,0-11,.35-17.46,11.56-17.46,13.1,0,10.85,13.67,11.21,33.34h14.28c.09-9.55-1.62-28.32,6.37-32.51,2.82-1.48,9.63-2.2,12.63.53,4.12,3.76,4.01,16.32,4.01,22.24,0,37.02,3.12,63.09-16.7,56.29Z" />
		<path class="cls-2"
			d="m72.49,181.64c-5.61-.39-16.68-.54-20.18-4.19-3.78-3.93-3.49-10.55-1.3-14.04,3.4-5.41,11.28-5.4,18.11-5.49,36.65,0,41.81-.77,46.97,2.36,5.22,3.17,4.54,10.41,2.54,13.92-3.5,6.16-14.29,6.58-21.83,7.2,0,48.48,2.9,57-12.57,57s-11.74-10.36-11.74-56.76Z" />
		<path class="cls-2"
			d="m167.41,237.7c-7.05-2.41-6.2-18.69-6.2-26.32l-13.57.94c-1.31,14.3,2.27,26.55-10.38,26.55-11.5,0-13.22-3.63-13.22-63.61,0-10.98.34-17.46,11.56-17.46,13.14,0,10.85,13.8,11.21,33.34h14.28c.09-9.28-1.64-28.31,6.37-32.51,2.82-1.48,9.63-2.2,12.63.53,4.12,3.76,4.01,16.34,4.01,22.24,0,36.81,3.12,63.09-16.7,56.29Z" />
		<path class="cls-2"
			d="m216.36,211.03c0,2.98,2.97,5.09,5.84,6.02,5.54,1.8,13.57-.46,19.29-2.48,4.88-1.71,7.91,4.7,7.91,7.79,0,11.19-16.19,16.45-27.61,16.05-33.97-1.08-41.18-51.1-19.88-72.4,9.74-9.74,26.36-11.85,38.77-3.36,10.8,7.39,11.36,23.41,4.96,32.45-10.47,14.4-29.27,12.01-29.27,15.93Zm12.98-30.09c0-9.16-17.46-3.82-16.4,12.15,5.65-.2,16.4-5.74,16.4-12.15Z" />
		<path class="cls-2"
			d="m322.92,237.93c-22.08,0-2.8-31.98-18.41-31.98-10.85,0-7.2,6.07-7.2,18.06,0,17.15-16.45,19.82-21.48-3.42-3.11-14.58-3.61-52.54,2.89-59.83,4.3-4.82,17.64-5.72,17.64,6.61,0,9.97-.46,16.61,1.71,19,2.47,2.73,8.09,2.01,9.97,1,5.55-2.97,1.71-14.13,4.42-22.54,3.22-10,20.83-13.38,22.36,4.07.82,8.98.08,27.12-.53,37-1.34,21.64-2.18,32.04-11.39,32.04Z" />
		<path class="cls-2"
			d="m367.71,211.03c0,2.98,2.97,5.09,5.84,6.02,5.54,1.8,13.56-.46,19.29-2.48,4.88-1.72,7.91,4.71,7.91,7.79,0,11.23-16.26,16.44-27.61,16.05-33.97-1.08-41.18-51.1-19.88-72.4,9.74-9.74,26.36-11.85,38.77-3.36,10.74,7.36,11.4,23.35,4.96,32.45-10.52,14.46-29.27,11.94-29.27,15.93Zm12.98-30.09c0-9.16-17.46-3.82-16.4,12.15,5.65-.2,16.4-5.74,16.4-12.15Z" />
		<path class="cls-2"
			d="m430.8,211.03c0,2.98,2.97,5.09,5.84,6.02,5.54,1.8,13.56-.46,19.29-2.48,4.87-1.71,7.91,4.7,7.91,7.79,0,11.23-16.26,16.44-27.61,16.05-33.84-1.07-41.25-51.03-19.88-72.4,9.74-9.74,26.35-11.85,38.77-3.36,10.66,7.3,11.46,23.27,4.96,32.45-10.51,14.46-29.27,11.95-29.27,15.93Zm12.98-30.09c0-9.06-17.48-4-16.4,12.15,5.64-.2,16.4-5.74,16.4-12.15Z" />
		<path class="cls-2"
			d="m475.5,157.57c4.7-1.02,10.62-.12,14.69,3.95,6.02,6.03,4.54,10.04,4.54,48.32,0,10.96,15.03,3.3,22.07,3.3,12.06,0,11.6,15.37,2.18,21.01-10.02,6-49.15,11.01-49.15-22.42,1.03-48.26-3.45-52.19,5.66-54.17Z" />
		<path class="cls-2"
			d="m553.8,211.03c0,2.98,2.97,5.09,5.84,6.02,5.54,1.8,13.56-.46,19.29-2.48,4.87-1.71,7.91,4.7,7.91,7.79,0,11.23-16.26,16.44-27.61,16.05-33.94-1.08-41.2-51.08-19.88-72.4,9.77-9.77,26.37-11.83,38.77-3.36,10.66,7.3,11.46,23.27,4.96,32.45-10.51,14.46-29.27,11.95-29.27,15.93Zm12.98-30.09c0-9.06-17.48-4-16.4,12.15,5.64-.2,16.4-5.74,16.4-12.15Z" />
		<path class="cls-2"
			d="m615.43,211.85c-.36,18.91.07,22.76-3.42,25.02-2.21,1.43-9.8,2.11-13.45-.18-4.41-2.75-4.54-7.66-4.54-12.45,0-56.6-4.02-62.29,13.87-66.97,9.77-2.55,24.96-2.06,34.34,4.84,14.93,10.99,8.62,34.54-.24,41.24,9.17,7.34,11.25,24.22,8.32,30.5-3.03,6.5-19.41,8.56-19.41-3.95-.47-5.27-1.01-10.42-4.07-14.4-3.71-4.8-11.39-7.15-11.39-3.66Zm.94-36.11v13.69c13.13,6.92,17.61-15.58,4.96-15.58-2.28,0-3.93.63-4.96,1.89Z" />
		<path class="cls-2"
			d="m681.74,182.47c1.98,3.99,22.61,12.45,28.68,23.25,4.73,8.4,5.62,33.16-32.57,33.16-13.61,0-27.8-6.7-20.95-17.11,5.38-8.17,29.44-4.25,29.44-8.85,0-.29-.32-.96-.83-1.3-7.31-4.01-17.8-9.44-23.36-16.99-6.96-9.45-6.76-23.88,5.01-32.04,9.45-6.55,26.31-8.17,36.11-5.43,10.24,2.87,13.11,16.21-1.3,20.12-13.53,3.68-21.35,1.32-20.24,5.19Z" />
	</g>
</svg>